<svg width="67" height="85" viewBox="0 0 67 85" fill="none" xmlns="http://www.w3.org/2000/svg">
<g clip-path="url(#clip0_801_120)">
<path d="M58.3117 16.9212C57.6481 14.818 55.8767 12.0343 51.1922 10.679C51.0797 10.6453 50.9616 10.6172 50.8492 10.5947C49.8144 10.3866 40.3386 8.95259 26.0883 21.9767C25.0423 22.8428 18.3895 28.5563 11.4556 39.8146C9.21738 37.8295 8.63815 34.8434 8.63815 34.8434C8.6269 34.7703 8.6269 34.7759 8.61003 34.6972C7.28848 28.157 13.6376 21.6956 13.705 21.6281C15.3528 19.9916 15.364 17.3317 13.7275 15.6784C12.0911 14.025 9.41983 14.0082 7.76648 15.6446C7.37283 16.0326 -1.85556 25.3059 0.332036 36.3112C0.528864 37.419 1.96289 44.1054 8.17139 47.817C8.21075 47.8395 8.25574 47.862 8.29511 47.8844C7.09165 50.1564 5.70261 54.1266 7.10852 58.8279C7.45156 60.0201 10.0103 67.2688 21.4657 67.2576C22.7085 67.2576 24.0582 67.1676 25.5203 66.9764C25.5597 66.9764 25.599 66.9652 25.6328 66.9595C25.7734 66.937 26.8587 66.7458 28.4727 66.3072C30.3735 67.9662 33.3484 69.5632 37.8811 69.8725C39.3432 69.9738 40.9628 69.9344 42.7624 69.7263C43.9208 69.5914 44.7475 68.5454 44.6125 67.3869C44.4776 66.2285 43.4316 65.4018 42.2731 65.5368C38.3253 65.9979 35.5304 65.4468 33.5846 64.5808C37.1725 63.1186 41.2777 60.8524 44.3201 57.4501C44.4101 57.3489 44.4945 57.242 44.5732 57.1239C44.9893 56.5054 46.997 53.2718 45.8891 50.162C45.4617 48.9585 44.4213 47.3615 41.9301 46.6023C41.2834 46.3942 35.4179 44.769 28.827 51.1461C28.214 51.7197 24.4856 55.4481 25.031 61.0548C24.868 61.0885 24.7499 61.111 24.6936 61.1223C14.8017 62.382 12.974 57.765 12.8053 57.2589C12.794 57.197 12.794 57.2195 12.7659 57.1296C11.7143 53.6092 13.3564 50.7468 13.9637 49.8583C14.9085 50.0045 15.8758 50.0889 16.888 50.0889C19.6211 50.0889 22.596 49.549 25.7902 48.4637C27.0837 48.0532 43.9827 42.469 55.0275 28.9612C55.8767 27.904 60.0382 22.3479 58.3173 16.8987L58.3117 16.9212ZM40.1699 52.2539C40.1699 52.2539 40.1811 52.2539 40.1924 52.2596C40.1699 52.2539 40.153 52.2483 40.153 52.2483C40.153 52.2483 40.153 52.2483 40.1699 52.2483V52.2539ZM32.8085 55.5212C32.8423 55.4931 32.876 55.4594 32.9098 55.4256C35.8059 52.6195 38.2297 52.1921 39.4219 52.1921C39.8549 52.1921 40.1249 52.2483 40.198 52.2652C40.2374 52.2764 40.2767 52.2933 40.3048 52.3046C40.2542 52.6645 40.0237 53.2606 39.7593 53.7104C37.3131 56.3535 33.8883 58.1474 30.919 59.3115C31.1889 57.0508 32.7467 55.5831 32.8085 55.5269V55.5212ZM48.4535 23.7032C38.8652 35.4114 23.3664 40.4107 23.2146 40.4557C23.1809 40.467 23.1471 40.4782 23.1134 40.4895C22.2305 40.7875 21.3869 41.035 20.5771 41.2205C26.3695 32.6334 31.4251 28.5057 31.4701 28.4663C31.5488 28.4045 31.6219 28.3426 31.6951 28.2751C41.3171 19.4461 47.565 18.8782 49.0159 18.8782C49.0721 18.8782 49.1227 18.8782 49.1677 18.8782C49.9156 19.1312 50.2249 19.3899 50.2699 19.463C50.4836 20.0366 49.6401 22.1904 48.4535 23.7032Z" fill="white"/>
<path d="M19.9139 14.5425C23.9298 14.5425 27.1853 11.2871 27.1853 7.27125C27.1853 3.25545 23.9298 0 19.9139 0C15.8981 0 12.6426 3.25545 12.6426 7.27125C12.6426 11.2871 15.8981 14.5425 19.9139 14.5425Z" fill="white"/>
<path d="M45.1189 84.9945C57.2037 84.9945 67.0004 83.7508 67.0004 82.2165C67.0004 80.6822 57.2037 79.4385 45.1189 79.4385C33.034 79.4385 23.2373 80.6822 23.2373 82.2165C23.2373 83.7508 33.034 84.9945 45.1189 84.9945Z" fill="white"/>
</g>
<defs>
<clipPath id="clip0_801_120">
<rect width="67" height="85" fill="white"/>
</clipPath>
</defs>
</svg>
