<svg width="97" height="146" viewBox="0 0 97 146" fill="none" xmlns="http://www.w3.org/2000/svg">
<path d="M30.1646 97.922C30.1646 90.2688 30.789 84.0874 32.0376 79.3777C33.352 74.668 35.2249 70.9068 37.6565 68.0941C40.0881 65.216 43.374 62.4686 47.5142 59.8521C52.5088 56.5815 56.2876 53.4745 58.8506 50.5309C61.4793 47.5874 62.8266 44.1532 62.8923 40.2285C62.8266 36.0421 61.3479 32.6407 58.4563 30.0242C55.5647 27.4077 51.9831 26.0995 47.7114 26.0995C44.8198 26.0995 42.1253 26.7209 39.628 27.9637C37.1965 29.2065 35.2249 31.0381 33.7134 33.4583C32.2019 35.8132 31.4133 38.5932 31.3476 41.7984H0C0.131436 32.5753 2.30014 24.8239 6.5061 18.5444C10.7778 12.2648 16.4624 7.62052 23.56 4.61156C30.7232 1.53719 38.7737 0 47.7114 0C57.3062 0 65.8167 1.50448 73.2429 4.51344C80.669 7.5224 86.4851 11.9377 90.6911 17.7594C94.897 23.5811 97 30.5475 97 38.6586C96.9343 46.5081 94.9956 53.1801 91.1839 58.6747C87.438 64.1039 82.0163 68.9444 74.9187 73.1962C69.3327 76.4014 65.3238 79.8356 62.8923 83.4987C60.4607 87.0963 59.2121 91.9041 59.1463 97.922V100.669H30.1646V97.922ZM27.4045 128.142C27.3388 125.003 28.0945 122.092 29.6717 119.41C31.3147 116.728 33.4834 114.602 36.1778 113.032C38.938 111.462 41.9282 110.677 45.1484 110.677C48.2371 110.677 51.1616 111.462 53.9217 113.032C56.6819 114.602 58.8835 116.728 60.5264 119.41C62.2351 122.092 63.0894 125.003 63.0894 128.142C63.0894 131.348 62.2351 134.324 60.5264 137.071C58.8835 139.819 56.6819 142.01 53.9217 143.645C51.1616 145.215 48.2371 146 45.1484 146C41.9282 146 38.938 145.215 36.1778 143.645C33.4834 142.01 31.3147 139.819 29.6717 137.071C28.0945 134.324 27.3388 131.348 27.4045 128.142Z" fill="#868DFB" fill-opacity="0.2"/>
</svg>
