<svg width="28" height="14" viewBox="0 0 28 14" fill="none" xmlns="http://www.w3.org/2000/svg">
<path opacity="0.4" fill-rule="evenodd" clip-rule="evenodd" d="M5.6 1.5H19.4C20.3966 1.5 21.0839 1.50078 21.6174 1.54436C22.1392 1.587 22.4251 1.66555 22.635 1.77248C23.1054 2.01217 23.4878 2.39462 23.7275 2.86502C23.8345 3.0749 23.913 3.36085 23.9556 3.88264C23.9992 4.4161 24 5.10341 24 6.1V7.9C24 8.89659 23.9992 9.5839 23.9556 10.1174C23.913 10.6392 23.8345 10.9251 23.7275 11.135C23.4878 11.6054 23.1054 11.9878 22.635 12.2275C22.4251 12.3345 22.1392 12.413 21.6174 12.4556C21.0839 12.4992 20.3966 12.5 19.4 12.5H5.6C4.60341 12.5 3.9161 12.4992 3.38264 12.4556C2.86085 12.413 2.5749 12.3345 2.36502 12.2275C1.89462 11.9878 1.51217 11.6054 1.27248 11.135C1.16555 10.9251 1.087 10.6392 1.04436 10.1174C1.00078 9.5839 1 8.89659 1 7.9V6.1C1 5.10341 1.00078 4.4161 1.04436 3.88264C1.087 3.36085 1.16555 3.0749 1.27248 2.86502C1.51217 2.39462 1.89462 2.01217 2.36502 1.77248C2.5749 1.66555 2.86085 1.587 3.38264 1.54436C3.9161 1.50078 4.60341 1.5 5.6 1.5ZM0 6.1C0 4.13982 0 3.15972 0.381477 2.41103C0.717034 1.75247 1.25247 1.21703 1.91103 0.881477C2.65972 0.5 3.63982 0.5 5.6 0.5H19.4C21.3602 0.5 22.3403 0.5 23.089 0.881477C23.7475 1.21703 24.283 1.75247 24.6185 2.41103C25 3.15972 25 4.13982 25 6.1V7.9C25 9.86018 25 10.8403 24.6185 11.589C24.283 12.2475 23.7475 12.783 23.089 13.1185C22.3403 13.5 21.3602 13.5 19.4 13.5H5.6C3.63982 13.5 2.65972 13.5 1.91103 13.1185C1.25247 12.783 0.717034 12.2475 0.381477 11.589C0 10.8403 0 9.86018 0 7.9V6.1ZM26 9C26.8284 8.8 27.5 8.10457 27.5 7C27.5 5.89543 26.8284 5.2 26 5L26 7L26 9Z" fill="#666666"/>
</svg>
