<svg width="30" height="30" viewBox="0 0 30 30" fill="none" xmlns="http://www.w3.org/2000/svg">
<path d="M25.0125 19.225C23.475 19.225 21.9875 18.975 20.6 18.525C20.1625 18.375 19.675 18.4875 19.3375 18.825L17.375 21.2875C13.8375 19.6 10.525 16.4125 8.7625 12.75L11.2 10.675C11.5375 10.325 11.6375 9.8375 11.5 9.4C11.0375 8.0125 10.8 6.525 10.8 4.9875C10.8 4.3125 10.2375 3.75 9.5625 3.75H5.2375C4.5625 3.75 3.75 4.05 3.75 4.9875C3.75 16.6 13.4125 26.25 25.0125 26.25C25.9 26.25 26.25 25.4625 26.25 24.775V20.4625C26.25 19.7875 25.6875 19.225 25.0125 19.225Z" fill="#30BB78"/>
</svg>
