<svg width="30" height="30" viewBox="0 0 30 30" fill="none" xmlns="http://www.w3.org/2000/svg">
<path d="M11.8945 20.7008C11.9341 15.5458 13.3582 13.969 15.8505 12.4124C17.5319 11.3005 18.8374 9.94609 18.8176 7.92453C18.8374 5.66038 17.0967 4.20485 14.9407 4.20485C12.9824 4.20485 11.0835 5.49865 10.9451 8.20755H6C6.13846 2.76954 10.0945 0 14.9802 0C20.3209 0 23.9802 3.03235 24 7.84367C23.9802 11.1388 22.378 13.2817 19.8066 14.8383C17.5121 16.2736 16.5626 17.6685 16.5231 20.7008V21.0647H11.8945V20.7008ZM11.2615 26.8464C11.2418 25.1482 12.6462 23.7534 14.3473 23.7332C15.989 23.7534 17.3934 25.1482 17.3934 26.8464C17.3934 28.5849 15.989 30 14.3473 30C12.6462 30 11.2418 28.5849 11.2615 26.8464Z" fill="#B6BBFD"/>
</svg>
