<svg width="65" height="65" viewBox="0 0 65 65" fill="none" xmlns="http://www.w3.org/2000/svg">
<path d="M27.2969 39.7031C27.2969 38.5986 26.4014 37.7031 25.2969 37.7031H11.5781C10.4736 37.7031 9.57812 36.8077 9.57812 35.7031V29.2969C9.57812 28.1923 10.4736 27.2969 11.5781 27.2969H25.2969C26.4014 27.2969 27.2969 26.4014 27.2969 25.2969V11.5781C27.2969 10.4736 28.1923 9.57812 29.2969 9.57812H35.6094C36.7139 9.57812 37.6094 10.4736 37.6094 11.5781V25.2969C37.6094 26.4014 38.5048 27.2969 39.6094 27.2969H53.4219C54.5264 27.2969 55.4219 28.1923 55.4219 29.2969V35.7031C55.4219 36.8077 54.5264 37.7031 53.4219 37.7031H39.6094C38.5048 37.7031 37.6094 38.5986 37.6094 39.7031V53.4219C37.6094 54.5264 36.7139 55.4219 35.6094 55.4219H29.2969C28.1923 55.4219 27.2969 54.5264 27.2969 53.4219V39.7031Z" fill="#B6BBFD"/>
</svg>
