<svg width="58" height="58" viewBox="0 0 58 58" fill="none" xmlns="http://www.w3.org/2000/svg">
<path d="M48 48L53.6768 37.9448L42.1303 38.0561L48 48ZM9.98684 10.9999C10.3007 11.004 10.6231 11.013 10.9534 11.0272L11.0389 9.02899C10.6893 9.01404 10.3472 9.00448 10.0132 9.00009L9.98684 10.9999ZM12.8974 11.1631C13.5264 11.2235 14.1756 11.3013 14.8415 11.3977L15.128 9.41832C14.4307 9.31735 13.7497 9.23577 13.0886 9.17228L12.8974 11.1631ZM16.7737 11.7227C17.4018 11.8429 18.0406 11.9795 18.6876 12.1332L19.15 10.1874C18.4741 10.0268 17.8065 9.88409 17.1499 9.75836L16.7737 11.7227ZM20.5852 12.6285C21.206 12.8052 21.8317 12.9978 22.4602 13.2073L23.0925 11.3099C22.4354 11.0909 21.7814 10.8895 21.1327 10.7049L20.5852 12.6285ZM24.3026 13.8679C24.9057 14.0997 25.5093 14.3474 26.1117 14.6118L26.9154 12.7804C26.2839 12.5032 25.6515 12.2437 25.0202 12.001L24.3026 13.8679ZM27.8829 15.4401C28.4621 15.7283 29.0384 16.0326 29.6102 16.3537L30.5894 14.6098C29.9879 14.272 29.3821 13.9521 28.7738 13.6495L27.8829 15.4401ZM31.2871 17.3531C31.8336 17.6984 32.3741 18.0601 32.9073 18.4388L34.0653 16.8082C33.5021 16.4081 32.9316 16.0264 32.3556 15.6624L31.2871 17.3531ZM34.4639 19.6106C34.9681 20.0129 35.4639 20.4319 35.95 20.8679L37.2855 19.3792C36.7702 18.9169 36.2449 18.4731 35.7112 18.0473L34.4639 19.6106ZM37.3579 22.2081C37.81 22.665 38.2518 23.1386 38.6818 23.6293L40.186 22.3112C39.7288 21.7895 39.2595 21.2864 38.7794 20.8013L37.3579 22.2081ZM39.916 25.1281C40.3082 25.6354 40.6883 26.1592 41.0553 26.7L42.7103 25.577C42.3198 25.0016 41.9154 24.4444 41.4984 23.9049L39.916 25.1281ZM42.0956 28.3397C42.4218 28.8906 42.7349 29.4576 43.034 30.0412L44.8139 29.1291C44.4962 28.5091 44.1634 27.9065 43.8166 27.3208L42.0956 28.3397ZM43.8689 31.7983C44.126 32.3836 44.3696 32.9844 44.5988 33.601L46.4735 32.9041C46.2308 32.2513 45.9727 31.6147 45.7001 30.994L43.8689 31.7983ZM45.225 35.4419C45.4138 36.0522 45.5892 36.6769 45.7503 37.3164L47.6897 36.8279C47.52 36.1541 47.335 35.4951 47.1356 34.8506L45.225 35.4419ZM46.178 39.2191C46.3027 39.8478 46.4143 40.49 46.5119 41.1458L48.4901 40.8514C48.3878 40.1642 48.2708 39.4904 48.1397 38.8297L46.178 39.2191ZM46.756 43.0937C46.8216 43.7335 46.8744 44.3856 46.9139 45.0501L48.9104 44.9315C48.8692 44.2389 48.8141 43.5584 48.7456 42.8898L46.756 43.0937Z" fill="#9C9C9C"/>
</svg>
