<svg width="364" height="142" viewBox="0 0 364 142" fill="none" xmlns="http://www.w3.org/2000/svg">
<mask id="path-1-inside-1_802_1374" fill="white">
<path fill-rule="evenodd" clip-rule="evenodd" d="M28.1271 0H335.873C351.407 0 364 13.2991 364 29.7045V96.8773C364 109.92 356.04 120.999 344.971 124.993C343.926 125.37 343.299 126.477 343.606 127.545L346.892 138.989C347.428 140.856 345.256 142.314 343.731 141.111L332.565 132.301L325.861 127.012C325.508 126.733 325.072 126.582 324.622 126.582H28.1271C12.5929 126.582 0 113.283 0 96.8773V29.7045C0 13.2991 12.5929 0 28.1271 0Z"/>
</mask>
<path d="M332.565 132.301L333.804 130.731L333.804 130.731L332.565 132.301ZM325.861 127.012L327.1 125.441L325.861 127.012ZM346.892 138.989L348.814 138.437L346.892 138.989ZM343.731 141.111L342.492 142.681L343.731 141.111ZM344.971 124.993L344.292 123.112L344.971 124.993ZM335.873 -2H28.1271V2H335.873V-2ZM366 29.7045C366 12.2988 352.613 -2 335.873 -2V2C350.201 2 362 14.2995 362 29.7045H366ZM366 96.8773V29.7045H362V96.8773H366ZM345.65 126.875C357.54 122.584 366 110.732 366 96.8773H362C362 109.107 354.541 119.414 344.292 123.112L345.65 126.875ZM348.814 138.437L345.528 126.993L341.684 128.097L344.97 139.541L348.814 138.437ZM331.326 133.871L342.492 142.681L344.97 139.541L333.804 130.731L331.326 133.871ZM324.622 128.582L331.326 133.871L333.804 130.731L327.1 125.441L324.622 128.582ZM28.1271 128.582H324.622V124.582H28.1271V128.582ZM-2 96.8773C-2 114.283 11.3869 128.582 28.1271 128.582V124.582C13.7989 124.582 2 112.282 2 96.8773H-2ZM-2 29.7045V96.8773H2V29.7045H-2ZM28.1271 -2C11.3869 -2 -2 12.2988 -2 29.7045H2C2 14.2995 13.7989 2 28.1271 2V-2ZM327.1 125.441C326.394 124.885 325.521 124.582 324.622 124.582V128.582L327.1 125.441ZM344.97 139.541C344.974 139.555 344.975 139.563 344.975 139.565C344.975 139.568 344.975 139.567 344.975 139.563C344.975 139.56 344.976 139.555 344.977 139.549C344.978 139.544 344.98 139.539 344.982 139.535C344.985 139.527 344.987 139.525 344.985 139.527C344.983 139.53 344.978 139.535 344.97 139.541C344.962 139.546 344.955 139.549 344.952 139.55C344.948 139.551 344.951 139.55 344.96 139.55C344.964 139.55 344.969 139.55 344.975 139.551C344.98 139.552 344.985 139.553 344.988 139.554C344.992 139.556 344.993 139.556 344.99 139.555C344.988 139.554 344.981 139.55 344.97 139.541L342.492 142.681C345.542 145.088 349.887 142.171 348.814 138.437L344.97 139.541ZM344.292 123.112C342.348 123.814 341.06 125.927 341.684 128.097L345.528 126.993C345.528 126.991 345.528 126.991 345.528 126.992C345.528 126.993 345.528 126.993 345.528 126.993C345.528 126.992 345.53 126.982 345.538 126.966C345.557 126.932 345.595 126.894 345.65 126.875L344.292 123.112Z" fill="#868DFB" mask="url(#path-1-inside-1_802_1374)"/>
</svg>
