<svg width="322" height="150" viewBox="0 0 322 150" fill="none" xmlns="http://www.w3.org/2000/svg">
<mask id="path-1-inside-1_64_1863" fill="white">
<path fill-rule="evenodd" clip-rule="evenodd" d="M32.6965 0H289.304C307.361 0 322 13.9568 322 31.1733V101.668C322 115.42 312.659 127.093 299.697 131.233C298.598 131.584 297.945 132.745 298.295 133.844L302.292 146.412C302.874 148.243 300.791 149.762 299.225 148.647L285.462 138.843L277.556 133.212C277.218 132.971 276.812 132.841 276.396 132.841H32.6965C14.6387 132.841 0 118.884 0 101.668V31.1733C0 13.9568 14.6387 0 32.6965 0Z"/>
</mask>
<path d="M285.462 138.843L286.622 137.214L286.622 137.214L285.462 138.843ZM277.556 133.212L278.717 131.583L277.556 133.212ZM302.292 146.412L304.198 145.805L302.292 146.412ZM299.225 148.647L300.386 147.018L299.225 148.647ZM299.697 131.233L300.305 133.138L299.697 131.233ZM298.295 133.844L300.2 133.238L298.295 133.844ZM289.304 -2H32.6965V2H289.304V-2ZM324 31.1733C324 12.7634 308.375 -2 289.304 -2V2C306.348 2 320 15.1502 320 31.1733H324ZM324 101.668V31.1733H320V101.668H324ZM300.305 133.138C314.021 128.757 324 116.367 324 101.668H320C320 114.473 311.298 125.428 299.088 129.328L300.305 133.138ZM304.198 145.805L300.2 133.238L296.389 134.451L300.386 147.018L304.198 145.805ZM284.302 140.472L298.065 150.276L300.386 147.018L286.622 137.214L284.302 140.472ZM276.396 134.841L284.302 140.472L286.622 137.214L278.717 131.583L276.396 134.841ZM32.6965 134.841H276.396V130.841H32.6965V134.841ZM-2 101.668C-2 120.078 13.6251 134.841 32.6965 134.841V130.841C15.6523 130.841 2 117.691 2 101.668H-2ZM-2 31.1733V101.668H2V31.1733H-2ZM32.6965 -2C13.6251 -2 -2 12.7634 -2 31.1733H2C2 15.1502 15.6523 2 32.6965 2V-2ZM278.717 131.583C278.039 131.101 277.228 130.841 276.396 130.841V134.841L278.717 131.583ZM300.386 147.018C300.39 147.031 300.391 147.039 300.392 147.041C300.392 147.044 300.392 147.043 300.392 147.039C300.392 147.036 300.392 147.031 300.393 147.026C300.394 147.02 300.396 147.016 300.397 147.012C300.4 147.004 300.402 147.002 300.4 147.004C300.398 147.007 300.393 147.012 300.386 147.018C300.378 147.023 300.372 147.026 300.369 147.027C300.366 147.028 300.368 147.027 300.377 147.027C300.381 147.026 300.386 147.027 300.391 147.027C300.396 147.028 300.401 147.029 300.404 147.03C300.408 147.031 300.408 147.032 300.406 147.03C300.404 147.029 300.397 147.026 300.386 147.018L298.065 150.276C301.195 152.505 305.363 149.468 304.198 145.805L300.386 147.018ZM299.088 129.328C297.019 129.989 295.68 132.221 296.389 134.451L300.2 133.238C300.2 133.236 300.2 133.235 300.2 133.237C300.2 133.238 300.2 133.239 300.2 133.238C300.2 133.238 300.201 133.229 300.209 133.215C300.226 133.184 300.259 133.153 300.305 133.138L299.088 129.328Z" fill="#868DFB" mask="url(#path-1-inside-1_64_1863)"/>
</svg>
