<svg width="201" height="68" viewBox="0 0 201 68" fill="none" xmlns="http://www.w3.org/2000/svg">
<mask id="path-1-inside-1_788_588" fill="white">
<path fill-rule="evenodd" clip-rule="evenodd" d="M180.59 0H20.4096C9.1375 0 -0.000335693 9.83012 -0.000335693 21.9562V35.686C-0.000335693 45.1262 5.53792 53.175 13.3099 56.2773C14.3349 56.6864 14.958 57.7811 14.6586 58.8434L12.8661 65.202C12.3379 67.0759 14.5264 68.5232 16.044 67.3035L22.8092 61.8663L27.5165 58.0832C27.8717 57.7977 28.3137 57.6421 28.7694 57.6421H180.59C191.862 57.6421 201 47.812 201 35.686V21.9562C201 9.83012 191.862 0 180.59 0Z"/>
</mask>
<path d="M22.8092 61.8663L21.5563 60.3074L21.5563 60.3074L22.8092 61.8663ZM27.5165 58.0832L28.7694 59.6421L27.5165 58.0832ZM12.8661 65.202L10.9411 64.6593L12.8661 65.202ZM16.044 67.3035L17.2969 68.8624L16.044 67.3035ZM13.3099 56.2773L14.0513 54.4198L13.3099 56.2773ZM14.6586 58.8434L12.7336 58.3007L14.6586 58.8434ZM20.4096 -2H180.59V2H20.4096V-2ZM-2.00034 21.9562C-2.00034 8.8656 7.89789 -2 20.4096 -2V2C10.3771 2 1.99966 10.7946 1.99966 21.9562H-2.00034ZM-2.00034 35.686V21.9562H1.99966V35.686H-2.00034ZM12.5684 58.1348C3.99661 54.7132 -2.00034 45.9008 -2.00034 35.686H1.99966C1.99966 44.3516 7.07921 51.6368 14.0513 54.4198L12.5684 58.1348ZM10.9411 64.6593L12.7336 58.3007L16.5835 59.386L14.7911 65.7446L10.9411 64.6593ZM24.0621 63.4253L17.2969 68.8624L14.7911 65.7446L21.5563 60.3074L24.0621 63.4253ZM28.7694 59.6421L24.0621 63.4253L21.5563 60.3074L26.2636 56.5243L28.7694 59.6421ZM180.59 59.6421H28.7694V55.6421H180.59V59.6421ZM203 35.686C203 48.7765 193.102 59.6421 180.59 59.6421V55.6421C190.623 55.6421 199 46.8475 199 35.686H203ZM203 21.9562V35.686H199V21.9562H203ZM180.59 -2C193.102 -2 203 8.8656 203 21.9562H199C199 10.7946 190.623 2 180.59 2V-2ZM26.2636 56.5243C26.974 55.9534 27.858 55.6421 28.7694 55.6421V59.6421L26.2636 56.5243ZM14.7911 65.7446C14.7872 65.7585 14.7861 65.7666 14.7858 65.7692C14.7855 65.7719 14.7858 65.771 14.7856 65.7673C14.7854 65.7636 14.7847 65.7587 14.7835 65.7532C14.7823 65.7478 14.7807 65.7429 14.779 65.7389C14.7758 65.7309 14.7734 65.7288 14.7755 65.7312C14.7778 65.734 14.783 65.7393 14.7911 65.7446C14.7992 65.7499 14.806 65.7527 14.8095 65.7537C14.8126 65.7547 14.8097 65.7533 14.801 65.7535C14.7967 65.7535 14.7916 65.754 14.7861 65.755C14.7806 65.756 14.7759 65.7573 14.7724 65.7586C14.7688 65.7598 14.7682 65.7605 14.7705 65.7591C14.7728 65.7578 14.7798 65.7536 14.7911 65.7446L17.2969 68.8624C14.2618 71.3018 9.88466 68.4071 10.9411 64.6593L14.7911 65.7446ZM14.0513 54.4198C15.9046 55.1596 17.1949 57.2171 16.5835 59.386L12.7336 58.3007C12.7341 58.299 12.7338 58.3007 12.7338 58.3001C12.7334 58.2975 12.7313 58.2847 12.7201 58.2638C12.6951 58.2174 12.6428 58.1645 12.5684 58.1348L14.0513 54.4198Z" fill="#868DFB" mask="url(#path-1-inside-1_788_588)"/>
</svg>
