<svg width="314" height="325" viewBox="0 0 314 325" fill="none" xmlns="http://www.w3.org/2000/svg">
<path d="M183.463 39.5976C178.32 28.2031 161.091 36.064 161.091 36.064C175.612 45.233 183.463 39.5976 183.463 39.5976ZM154.95 37.9837C156.744 37.9837 158.206 36.5065 158.2 34.7235C158.2 32.9275 156.731 31.4698 154.937 31.4763C153.142 31.4828 151.68 32.9405 151.686 34.7365C151.686 36.5196 153.155 37.9902 154.95 37.9837ZM194.427 40.7038C194.427 40.7038 188.175 40.5802 182.49 44.0226L200.848 44.2504C201.062 44.0855 201.277 43.925 201.495 43.7688C201.495 43.7688 192.293 19.0862 167.963 16.1123C167.963 16.1123 173.869 34.3591 194.427 40.7038ZM207.329 45.4607C207.329 44.1332 206.246 43.0465 204.888 43.053C203.55 43.053 202.46 44.1462 202.467 45.4737C202.467 46.8273 203.563 47.8945 204.901 47.8945C206.259 47.8945 207.329 46.8143 207.329 45.4672M109.305 44.4521L127.663 44.1462C121.94 40.7299 115.701 40.8795 115.701 40.8795C136.245 34.4437 142.067 16.1709 142.067 16.1709C117.75 19.2554 108.653 43.9705 108.653 43.9705C108.979 44.2048 108.985 44.2048 109.299 44.4456M103.412 47.0095C103.412 48.35 104.508 49.4368 105.84 49.4303C107.184 49.4303 108.268 48.337 108.268 46.9965C108.268 45.656 107.178 44.5757 105.827 44.5757C104.476 44.5757 103.406 45.669 103.406 47.003M104.952 66.5252C91.6975 57.1741 72.4191 64.4819 72.4191 64.4819C89.5308 51.441 89.3611 30.6499 89.3611 30.6499C67.5701 41.8426 67.4983 68.1651 67.4983 68.1651C94.2101 75.987 104.952 66.5252 104.952 66.5252ZM112.301 61.3648L112.477 52.4627C102.538 49.5669 92.5003 51.4801 92.5003 51.4801C111.609 41.6083 115.074 21.1165 115.074 21.1165C91.6779 28.3593 87.0117 54.2718 87.0117 54.2718C97.8256 59.6143 106.244 61.2412 112.307 61.3713M217.98 49.7686C217.98 49.7686 210.011 47.3674 199.974 50.8098V59.9527C206.089 59.8161 212.309 58.3389 223.54 52.3781C223.54 52.3781 218.169 26.6283 194.57 20.0233C194.57 20.0233 198.603 40.4175 217.98 49.7686ZM126.645 40.8079C126.645 40.8079 134.718 46.0985 148.854 36.3439C148.854 36.3439 131.305 29.1987 126.645 40.8079ZM249.606 164.039L239.347 164.058L239.373 176.995L249.632 176.975L249.606 164.039ZM221.758 75.4404L216.479 81.746L245.214 110.274L251.002 104.463L221.758 75.4338V75.4404ZM277.558 74.4577L251.218 48.311L227.717 73.8851L253.039 98.6913L277.558 74.4512V74.4577ZM63.3281 71.9979C63.3281 73.3385 64.4245 74.4252 65.7623 74.4187C67.1002 74.4187 68.1836 73.3254 68.1836 71.9849C68.1836 70.6444 67.0937 69.5642 65.7493 69.5642C64.4049 69.5642 63.3215 70.6574 63.3215 71.9914M257.933 99.1924C262.449 100.468 268.003 101.411 274.797 101.678C274.797 101.678 277.858 92.5028 276.5 81.3946L267.651 89.8803C268.61 92.1188 269.824 94.3899 271.338 96.6155C271.338 96.6155 268.884 94.6047 264.962 92.4507L257.94 99.1989L257.933 99.1924ZM250.239 227.343L239.986 227.362L240.012 240.292L250.265 240.273L250.239 227.343ZM234.961 59.6534L240.887 53.634C238.355 45.1484 233.205 34.9187 220.532 28.8473C220.532 28.8473 220.042 47.016 234.961 59.6469M288.509 150.119C288.509 151.46 289.598 152.547 290.943 152.54C292.287 152.54 293.371 151.447 293.371 150.106C293.371 148.766 292.274 147.686 290.936 147.686C289.598 147.686 288.509 148.766 288.515 150.113M256.295 29.9796C263.964 33.7669 270.137 29.7649 270.137 29.7649C278.667 25.5741 284.854 31.3527 284.854 31.3527C290.819 35.9794 289.86 42.0899 289.86 42.0899C289.873 46.7687 288.522 47.0941 288.522 47.0941C285.683 49.0463 286.381 45.7471 286.381 45.7471C286.459 45.7145 287.027 43.4499 287.027 43.4499C288.117 32.8689 278.608 31.3657 278.608 31.3657C268.519 29.6347 266.013 38.9533 266.013 38.9533C265.386 41.5107 265.334 43.7818 265.621 45.7731L252.993 33.2268L253.606 43.8599L281.819 71.8808L291.896 71.8613L281.65 61.6902C287.053 63.3691 291.785 63.5318 291.785 63.5318C306.162 62.6208 307.643 48.9097 307.643 48.9097C311.409 34.5738 297.763 23.0297 297.763 23.0297C288.665 15.2599 274.914 14.6612 274.914 14.6612C255.368 12.4422 248.392 0 248.392 0C246.121 5.67446 246.734 14.056 246.734 14.056C248.059 26.9732 256.295 29.9796 256.295 29.9796ZM291.967 146.13C291.967 146.13 308.303 125.469 298.2 103.181C298.2 103.181 285.128 119.372 290.395 140.202C290.395 140.202 279.842 122.547 263.637 121.649C263.637 121.649 266.163 135.718 291.967 146.137M275.254 108.322C276.605 108.322 277.695 107.229 277.695 105.882C277.695 104.541 276.592 103.461 275.241 103.461C273.89 103.461 272.813 104.554 272.813 105.889C272.813 107.242 273.916 108.322 275.254 108.322ZM226.177 69.1412L233.525 61.521C227.26 60.0894 215.461 58.0396 205.959 65.1391C205.959 65.1391 210.86 70.6574 226.177 69.1412ZM285.317 123.159C285.317 123.159 297.828 99.9733 284.006 79.7938C284.006 79.7938 273.949 97.995 282.772 117.589C282.772 117.589 269.302 102.017 253.182 103.949C253.182 103.949 258.116 117.374 285.317 123.159ZM199.706 300.219C199.706 301.56 200.816 302.64 202.147 302.64C203.505 302.64 204.588 301.547 204.588 300.213C204.588 298.879 203.498 297.785 202.141 297.792C200.809 297.792 199.713 298.892 199.713 300.226M211.91 297.876C211.91 297.876 225.661 286.046 225.759 271.32L220.838 271.528C216.394 275.432 209.907 283.697 206.317 300.44C206.317 300.44 229.59 312.902 249.821 299.113C249.821 299.113 231.548 289.078 211.917 297.876M189.238 305.49C189.238 305.49 206.957 294.955 207.845 278.797C207.845 278.797 193.722 281.309 183.286 307.045C183.286 307.045 204.007 323.34 226.353 313.273C226.353 313.273 210.122 300.226 189.245 305.49M165.444 310.585C183.854 302.035 187.92 287.731 187.92 287.731C173.588 288.773 161.352 310.247 161.352 310.247C177.432 326.548 198.238 324.459 198.238 324.459C188.658 311.9 165.444 310.585 165.444 310.585ZM155.191 303.108L155.204 309.16C152.391 304.761 141.414 288.844 129.06 288.089C129.06 288.089 133.296 302.328 151.804 310.664C151.804 310.664 128.61 312.238 119.166 324.941C119.166 324.941 139.398 326.704 155.211 310.982L155.23 320.828L161.378 320.815L161.358 310.254L161.345 303.102L155.198 303.115L155.191 303.108ZM240.065 247.119L240.091 260.049L298.22 307.911L309.83 307.885L250.63 247.093L240.058 247.112L240.065 247.119ZM232.951 286.443C232.951 286.443 238.218 280.137 240.795 271.268L230.895 271.138C229.342 275.979 228.167 282.142 227.887 289.944C227.887 289.944 249.28 296.972 266.365 284.582L259.767 279.324C252.464 278.933 242.427 280.027 232.951 286.449M117.848 301.325C117.848 299.998 116.758 298.905 115.414 298.905C114.076 298.905 112.98 300.011 112.98 301.332C112.98 302.653 114.082 303.759 115.427 303.753C116.771 303.746 117.855 302.672 117.855 301.319M279.966 233.277C279.966 233.277 283.262 212.981 271.423 201.925C271.423 201.925 264.277 214.308 277.329 238.822C277.329 238.822 303.173 233.473 309.791 209.922C309.791 209.922 289.337 213.957 279.966 233.277ZM256.119 276.265L247.55 269.335C247.733 271.515 248.013 273.806 248.431 276.259C248.431 276.259 251.518 276.617 256.119 276.265ZM243.191 279.454C244.542 279.454 245.631 278.361 245.631 277.027C245.631 275.693 244.528 274.593 243.178 274.593C241.833 274.593 240.743 275.693 240.75 277.033C240.75 278.374 241.846 279.454 243.191 279.454ZM39.54 244.483C39.54 245.824 40.6364 246.904 41.9808 246.904C43.3317 246.904 44.402 245.811 44.402 244.477C44.402 243.136 43.3252 242.049 41.9743 242.056C40.6299 242.056 39.54 243.149 39.5465 244.49M21.7104 197.532C41.8764 178.381 38.9983 164.377 38.9983 164.377C24.2752 171.138 20.9664 191.448 20.9664 191.448C18.1862 170.136 0.0433641 159.867 0.0433641 159.867C-1.12483 184.316 21.6973 197.519 21.6973 197.519M21.7626 200.884C21.7626 202.224 22.8655 203.304 24.2099 203.304C25.5478 203.304 26.6377 202.211 26.6377 200.877C26.6377 199.543 25.5348 198.45 24.1969 198.456C22.859 198.463 21.7561 199.55 21.7561 200.89M56.1101 49.196L37.2493 30.2985C25.5674 18.7088 11.7644 26.4005 11.7644 26.4005L48.9182 63.1218C51.3786 53.6731 56.1101 49.196 56.1101 49.196ZM41.661 60.8507L9.59774 28.984C9.59774 28.984 -3.76795 38.5889 6.68705 60.9223L41.6676 60.8507H41.661ZM28.1191 220.542C44.637 198.209 39.3703 184.901 39.3703 184.901C26.0438 194.122 26.3179 214.692 26.3179 214.692C19.9026 194.201 0.245677 187.218 0.245677 187.218C3.35216 211.478 28.1257 220.536 28.1257 220.536M43.1099 283.742C43.1099 283.742 46.9016 281.484 52.3901 280.658L46.2947 279.246L45.7073 280.001C46.0467 279.513 46.2947 279.246 46.2947 279.246L19.3218 307.664C19.3218 307.664 16.2545 312.082 19.1717 314.971C19.1717 314.971 21.8931 317.184 25.6522 314.62L51.9202 291.603C49.2641 290.243 43.4296 285.421 43.1033 283.742M94.3276 272.114L90.8817 272.094C90.7251 287.348 105.468 299.341 105.468 299.341C85.5825 291.089 67.6158 301.612 67.6158 301.612C88.2321 314.835 111.12 301.742 111.12 301.742C106.616 283.209 98.7785 275.276 94.3276 272.114ZM38.4632 242.121C50.8238 217.256 43.3513 205.068 43.3513 205.068C31.8065 216.449 35.67 236.661 35.67 236.661C25.7567 217.595 5.2056 214.146 5.2056 214.146C12.4758 237.475 38.4632 242.121 38.4632 242.121ZM109.018 280.17C110.356 296.289 128.355 306.317 128.355 306.317C107.341 301.651 91.4626 315.128 91.4626 315.128C114.076 324.57 134.346 307.716 134.346 307.716C123.193 282.291 109.018 280.17 109.018 280.17ZM50.7194 85.2535C78.3775 88.3185 87.2989 77.1388 87.2989 77.1388C72.6345 70.2279 54.9158 80.7504 54.9158 80.7504C69.5084 64.9504 65.7232 44.5107 65.7232 44.5107C46.1968 59.289 50.7194 85.2535 50.7194 85.2535ZM52.4097 261.578C60.2607 234.956 50.7651 224.245 50.7651 224.245C41.4 237.455 48.7159 256.672 48.7159 256.672C35.6308 239.622 14.7861 239.785 14.7861 239.785C26.0177 261.513 52.4097 261.578 52.4097 261.578ZM254.527 239.368C254.527 239.368 252.804 241.19 252.236 243.93L257.398 249.253C257.104 245.915 256.25 242.544 254.527 239.368ZM82.3063 133.246L91.8085 141.562L113.188 141.517C112.157 139.825 112.477 133.369 112.477 133.369L82.3128 133.246H82.3063ZM135.214 70.7225L135.188 58.8009L172.394 58.7228L172.433 75.7462L184.722 75.7202L184.748 87.9736L172.805 87.9997L172.818 93.4464L184.761 93.4203L184.787 106.689L172.844 106.715L172.929 146.54L162.69 146.56L148.482 132.465L135.554 145.421L126.143 136.083L147.601 114.589L158.715 125.632L158.598 70.6639L135.208 70.716L135.214 70.7225ZM116.21 127.831C116.269 156.087 134.059 169.101 155.961 169.049C177.902 169.004 195.641 155.95 195.582 127.662L195.412 47.1201L116.053 47.2893C116.053 47.2893 116.151 99.6154 116.21 127.831ZM86.8551 81.4141C86.8551 81.4141 84.4665 84.9086 75.3494 86.8999L86.8942 97.5005L86.8616 81.4207L86.8551 81.4141ZM188.586 198.788C191.17 198.788 191.17 196.836 191.196 194.858L191.157 176.455L196.45 176.442L196.489 195.905C196.489 198.743 196.182 203.552 188.56 203.571C183.626 203.584 180.669 201.281 180.663 196.283L180.624 176.474L185.917 176.461L185.956 193.732C185.956 195.749 185.714 198.795 188.592 198.788M202.226 208.94L202.239 213.885L196.881 213.898L196.894 219.703L201.612 219.69L201.625 224.649L196.907 224.662L196.92 230.674L202.369 230.661L202.382 235.633L191.647 235.653L191.588 208.959L202.232 208.94H202.226ZM200.724 176.435L206.67 176.422L208.217 180.125C208.673 181.439 209.228 182.806 209.502 184.192H209.561C209.848 182.806 210.272 181.472 210.762 180.125L212.354 176.416L218.065 176.403L212.38 189.333L218.541 203.083L212.406 203.096L210.697 198.866C210.194 197.513 209.868 196.192 209.522 194.871H209.45C209.058 196.198 208.752 197.519 208.288 198.873L206.722 203.109L200.777 203.122L206.409 189.352L200.718 176.448L200.724 176.435ZM216.955 235.607L215.95 231.104L210.586 231.117L209.639 235.62L204.399 235.633L210.546 208.927L216.126 208.914L222.613 235.594L216.962 235.607H216.955ZM183.078 235.679L181.766 216.443H181.688L180.846 223.035L178.614 235.692H174.535L171.911 222.911L171.011 216.963V216.462H170.939L170.201 235.705L164.511 235.718L166.801 209.018L173.771 209.005L176.395 224.759H176.453L178.561 208.998L185.669 208.985L188.527 235.679L183.091 235.692L183.078 235.679ZM165.796 176.513L171.089 176.5L171.135 198.235L176.662 198.222L176.675 203.168L165.855 203.194L165.796 176.513ZM158.996 172.407L159.192 262.932C159.192 262.932 164.308 257.843 171.474 257.823L227.808 257.706L227.567 145.375L197.181 145.441C197.181 145.441 188.612 171.965 158.996 172.414M136.265 184.088C136.265 182.175 135.332 180.613 132.682 180.756H131.977L131.99 187.869L132.917 187.901C135.332 187.901 136.272 186.274 136.272 184.088M213.196 215.779H213.124L212.563 219.814L211.447 226.926H215.174L213.81 219.807L213.203 215.773L213.196 215.779ZM70.409 97.1556H70.4351C69.4627 97.9039 62.7211 104.086 52.4293 105.342L55.9404 108.635L92.807 108.368L81.347 96.9994H81.3339L75.5256 91.2273C75.5256 91.2273 71.4402 96.4528 70.4155 97.1491M276.331 241.184C276.331 239.843 275.247 238.757 273.896 238.763C272.545 238.77 271.475 239.856 271.475 241.197C271.475 242.538 272.565 243.618 273.909 243.618C275.267 243.618 276.337 242.524 276.337 241.19M290.466 199.667C291.817 199.667 292.907 198.56 292.901 197.22C292.901 195.879 291.804 194.799 290.453 194.799C289.116 194.799 288.032 195.892 288.039 197.226C288.039 198.567 289.122 199.667 290.466 199.66M274.81 181.628C274.81 181.628 269.942 195.079 287.066 216.963C287.066 216.963 311.585 207.215 314 182.884C314 182.884 294.571 190.387 288.711 211.055C288.711 211.055 288.404 190.485 274.817 181.628M293.429 187.661C293.429 187.661 289.572 167.436 274.66 161.091C274.66 161.091 272.187 175.173 292.862 193.758C292.862 193.758 315.325 179.904 313.465 155.54C313.465 155.54 295.622 166.31 293.436 187.661M264.551 221.265C264.551 221.265 255.362 232.249 263.944 258.63C263.944 258.63 290.329 257.836 300.941 235.815C300.941 235.815 280.103 236.238 267.494 253.652C267.494 253.652 274.281 234.234 264.551 221.271M294.03 163.804C294.03 163.804 286.701 144.575 270.888 140.885C270.888 140.885 270.92 155.195 294.519 169.915C294.519 169.915 314.222 152.377 308.146 128.697C308.146 128.697 292.45 142.389 294.036 163.804M277.342 269.706C281.382 267.188 285.213 263.765 288.404 259.092C288.404 259.092 279.6 257.967 269.328 261.461L277.342 269.706ZM123.585 219.827L122.965 215.766H122.893L122.345 219.827L121.222 226.933H124.955L123.591 219.827H123.585ZM44.8393 62.2498C28.1975 80.1973 37.1579 104.958 37.1579 104.958C64.9335 103.207 71.7665 90.6612 71.7665 90.6612C56.1166 86.3923 40.5059 99.8236 40.5059 99.8236C52.1095 81.733 44.8328 62.2563 44.8328 62.2563M149.5 276.422L165.516 276.389C165.516 276.389 166.553 269.452 171.082 269.446L237.578 269.302L237.33 152.638L230.706 145.714L230.954 261.311L171.415 261.435C171.415 261.435 163.408 262.164 157.149 269.804C157.149 269.804 152.274 262.522 141.832 261.858L83.6768 261.982L83.4288 147.061L76.3022 154.193L76.5502 269.641L141.479 269.504C141.479 269.504 149.494 269.823 149.507 276.422M24.7973 153.887C24.7973 152.547 23.6944 151.466 22.363 151.466C21.0317 151.466 19.9353 152.56 19.9353 153.894C19.9353 155.221 21.0186 156.308 22.3761 156.301C23.7139 156.301 24.8038 155.208 24.8038 153.881M22.6371 143.879C27.336 122.938 13.8202 107.118 13.8202 107.118C4.33761 129.667 21.247 149.879 21.247 149.879C46.7515 138.757 48.8725 124.617 48.8725 124.617C32.7071 125.944 22.6371 143.879 22.6371 143.879ZM4.63129 132.888C-0.791992 156.737 19.3871 173.702 19.3871 173.702C42.5617 158.351 42.1962 144.048 42.1962 144.048C26.4941 148.161 19.7069 167.579 19.7069 167.579C20.6923 146.13 4.63129 132.881 4.63129 132.881M30.9907 85.3186C30.9907 85.3186 29.581 76.6702 38.6002 63.7075L8.05756 63.7726C8.05756 63.7726 9.35627 67.3126 30.9907 85.3186ZM111.805 130.181V126.881L95.8808 111.081L58.6814 111.16L79.7284 130.246L111.805 130.181ZM73.757 264.207C73.8614 265.313 74.0506 263.96 74.0506 263.96L74.018 248.179L71.4206 251.062C72.9086 255.051 73.4372 260.771 73.757 264.207ZM34.3256 109.162C34.3256 110.489 35.422 111.582 36.7598 111.582C38.1108 111.582 39.1876 110.483 39.1876 109.155C39.1876 107.815 38.0977 106.721 36.7468 106.721C35.4089 106.721 34.319 107.821 34.319 109.162M73.6395 281.901C74.9969 281.901 76.0738 280.808 76.0672 279.467C76.0672 278.127 74.9839 277.04 73.6264 277.046C72.269 277.053 71.2052 278.14 71.2052 279.48C71.2052 280.821 72.3016 281.907 73.633 281.901M90.2226 101.067L111.779 122.105L111.746 105.778L90.19 84.3815L90.2226 101.073V101.067ZM73.77 226.529L63.5239 226.549L63.55 239.466L73.7961 239.446L73.77 226.529ZM215.989 87.3489L199.302 105.518L199.53 134.508C199.53 134.508 199.028 139.291 198.003 141.673L208.758 141.647L239.412 110.938L215.989 87.3489ZM125.582 176.39L125.595 181.355L120.23 181.368L120.243 187.172L124.962 187.159L124.975 192.112L120.256 192.125L120.269 198.144L125.693 198.131L125.706 203.083L115.003 203.103L114.944 176.442L107.576 203.116H103.255L95.4632 176.442L101.121 176.429L104.352 189.248C104.822 190.758 105.004 192.287 105.331 193.804H105.39C105.67 192.255 105.788 190.739 106.205 189.17L109.397 176.409L125.588 176.377L125.582 176.39ZM132.356 235.575L126.717 235.588L125.712 231.104L120.348 231.117L119.395 235.607L114.141 235.62L120.295 208.914L125.862 208.901L132.349 235.581L132.356 235.575ZM126.665 176.39L131.99 176.377C135.358 176.37 141.395 176.715 141.408 184.016C141.408 186.945 140.24 189.463 137.623 190.901L142.308 203.051L136.728 203.064L132.049 190.752H131.977L132.003 203.077L126.711 203.09L126.652 176.39H126.665ZM143.294 176.357L148.593 176.344L148.652 203.044L143.353 203.057L143.294 176.357ZM139.509 235.998C138.001 235.998 136.161 235.555 134.953 234.657L134.94 229.633C136.187 230.486 137.388 231.052 138.96 231.045C140.657 231.045 142.008 229.913 142.008 228.124C142.008 226.08 140.357 225.299 138.869 224.232C135.802 222.189 133.929 220.224 133.916 216.313C133.909 212.102 136.343 208.458 140.892 208.452C142.595 208.452 144.129 208.901 145.578 209.747L145.591 214.894C144.527 213.977 143.222 213.196 141.76 213.202C140.116 213.202 139.084 214.185 139.091 215.818C139.097 220.217 147.164 220.445 147.177 227.662C147.19 232.412 144.482 235.991 139.509 236.004M113.136 213.905H108.94L108.985 235.633L103.693 235.646L103.647 213.924H99.4964L99.4833 208.959L113.123 208.933L113.136 213.905ZM86.5679 145.662L86.8094 257.993L142.609 257.875C148.926 258.012 155.433 262.932 155.433 262.932L155.243 173.084C121.437 172.42 114.559 145.603 114.559 145.603L86.5744 145.662H86.5679ZM89.3024 291.838C88.7607 283.293 87.1879 277.046 85.2496 272.055L75.3559 272.088C78.0577 281.445 84.1467 288.493 84.1467 288.493C66.0169 276.923 46.4774 284.178 46.4774 284.178C64.4767 300.779 89.3089 291.844 89.3089 291.844M55.353 111.979L50.3801 107.359C38.3588 110.431 29.6397 121.083 29.6397 121.083C35.2653 107.6 32.185 95.0016 29.6267 88.312L26.0177 85.3707C15.6149 105.101 27.2316 126.719 27.2316 126.719C43.26 122.834 51.3916 116.509 55.353 111.979ZM28.6934 263.374C43.5275 282.825 69.528 278.335 69.528 278.335C72.6149 250.737 61.4028 241.828 61.4028 241.828C54.485 256.476 65.0379 274.118 65.0379 274.118C49.1988 259.6 28.6934 263.374 28.6934 263.374ZM73.3001 165.431L63.054 165.451L63.0801 178.394L73.3262 178.374L73.3001 165.431Z" fill="white" fill-opacity="0.05"/>
</svg>
