<svg width="27" height="29" viewBox="0 0 27 29" fill="none" xmlns="http://www.w3.org/2000/svg">
<path d="M6 22.2778H9V11.3889H6V22.2778ZM12 22.2778H15V6.72222H12V22.2778ZM18 22.2778H21V16.0556H18V22.2778ZM3 28.5C2.175 28.5 1.4685 28.1956 0.8805 27.5869C0.2935 26.9771 0 26.2444 0 25.3889V3.61111C0 2.75556 0.2935 2.02289 0.8805 1.41311C1.4685 0.80437 2.175 0.5 3 0.5H24C24.825 0.5 25.5315 0.80437 26.1195 1.41311C26.7065 2.02289 27 2.75556 27 3.61111V25.3889C27 26.2444 26.7065 26.9771 26.1195 27.5869C25.5315 28.1956 24.825 28.5 24 28.5H3ZM3 25.3889H24V3.61111H3V25.3889Z" fill="#A6A9AF"/>
</svg>
